Coordinates
version=1
nRows=13
nColumns=38
inDegrees=no

Units are S.I. units (second, meters, Newtons, ...)
If the header above contains a line with 'inDegrees', this indicates whether rotational values are in degrees (yes) or radians (no).

endheader
time	pelvis_tilt	pelvis_list	pelvis_rotation	pelvis_tx	pelvis_ty	pelvis_tz	hip_flexion_r	hip_adduction_r	hip_rotation_r	knee_angle_r	ankle_angle_r	subtalar_angle_r	mtp_angle_r	hip_flexion_l	hip_adduction_l	hip_rotation_l	knee_angle_l	ankle_angle_l	subtalar_angle_l	mtp_angle_l	lumbar_extension	lumbar_bending	lumbar_rotation	arm_flex_r	arm_add_r	arm_rot_r	elbow_flex_r	pro_sup_r	wrist_flex_r	wrist_dev_r	arm_flex_l	arm_add_l	arm_rot_l	elbow_flex_l	pro_sup_l	wrist_flex_l	wrist_dev_l
0	-2.85532	1.49263	-2.02577	0.630587	-0.553921	0.93379	-0.121668	0.0139136	-0.0214418	0.090294	0.118188	0	0	0.493831	-0.161451	-0.221289	1.14574	0.182959	0	0	-0.233913	-0.123472	-0.0506054	-0.0909752	-0.208398	0.0921679	0.481367	1.19318	0	0	-0.172693	-0.423659	0.122972	0.75661	1.20398	0	0
0.01	-2.85058	1.4918	-2.03772	0.631374	-0.54491	0.933122	-0.135945	0.011241	-0.0141622	0.0848285	0.12259	0	0	0.494185	-0.162437	-0.238406	1.08718	0.181212	0	0	-0.233895	-0.126438	-0.0478574	-0.0871676	-0.208575	0.0973162	0.479715	1.18833	0	0	-0.170234	-0.425287	0.126512	0.755086	1.20229	0	0
0.02	-2.84835	1.48984	-2.04633	0.632164	-0.535616	0.932459	-0.151018	0.00801552	-0.00881279	0.0806365	0.129103	0	0	0.48956	-0.163281	-0.259986	1.02339	0.175862	0	0	-0.235358	-0.129921	-0.0461879	-0.0833834	-0.208115	0.102159	0.477466	1.18426	0	0	-0.168766	-0.427038	0.128429	0.75425	1.19801	0	0
0.03	-2.85073	1.48776	-2.04958	0.632892	-0.526277	0.931693	-0.165231	0.004917	-0.00478213	0.0783415	0.137408	0	0	0.481529	-0.162298	-0.282593	0.954124	0.168073	0	0	-0.237401	-0.133103	-0.0451341	-0.0793853	-0.207584	0.108522	0.474727	1.17922	0	0	-0.167117	-0.428985	0.130572	0.752681	1.19198	0	0
0.04	-2.85702	1.48591	-2.04813	0.633485	-0.516915	0.930786	-0.178589	0.00209362	-0.00198374	0.0777048	0.146394	0	0	0.470624	-0.1601	-0.307682	0.879792	0.160154	0	0	-0.23963	-0.135736	-0.0440591	-0.0756874	-0.206996	0.114452	0.471952	1.17201	0	0	-0.164424	-0.430884	0.133708	0.750203	1.18625	0	0
0.05	-2.8655	1.48464	-2.04322	0.633832	-0.507443	0.92968	-0.19108	-0.000425542	-0.000610838	0.0784748	0.155749	0	0	0.457823	-0.156443	-0.334556	0.801769	0.153803	0	0	-0.241539	-0.137517	-0.0436151	-0.0727108	-0.206835	0.121087	0.469833	1.16214	0	0	-0.161765	-0.432544	0.136936	0.747695	1.1805	0	0
0.06	-2.877	1.48423	-2.03398	0.633896	-0.497876	0.928358	-0.202327	-0.00245171	-0.00020617	0.0807577	0.165254	0	0	0.444308	-0.151404	-0.362591	0.72146	0.147648	0	0	-0.242756	-0.138134	-0.0437123	-0.0702417	-0.207243	0.12892	0.467777	1.15	0	0	-0.158604	-0.433745	0.140628	0.743793	1.17337	0	0
0.07	-2.88823	1.48485	-2.02349	0.633635	-0.488238	0.92682	-0.211935	-0.00419835	-0.00115188	0.084468	0.175372	0	0	0.431058	-0.144398	-0.391362	0.639384	0.139712	0	0	-0.243135	-0.137776	-0.0451467	-0.0677285	-0.208395	0.140568	0.465747	1.13262	0	0	-0.155879	-0.434804	0.144957	0.74007	1.16193	0	0
0.08	-2.90638	1.48897	-2.0039	0.63303	-0.47864	0.924868	-0.217712	-0.00371786	-0.00358531	0.0890844	0.184893	0	0	0.422794	-0.137383	-0.417486	0.561304	0.133131	0	0	-0.24095	-0.13481	-0.0477763	-0.0650875	-0.20765	0.139535	0.462054	1.13782	0	0	-0.153028	-0.434376	0.14508	0.735484	1.16472	0	0
0.09	-2.9101	1.49237	-1.99748	0.632167	-0.468974	0.92292	-0.223584	-0.00484571	-0.00981559	0.0942939	0.195552	0	0	0.412898	-0.124859	-0.437578	0.481283	0.125452	0	0	-0.239227	-0.133234	-0.0516721	-0.0621094	-0.206591	0.138523	0.457445	1.14203	0	0	-0.149634	-0.433847	0.144618	0.730318	1.16791	0	0
0.1	-2.88668	1.49525	-2.01607	0.630934	-0.459249	0.920935	-0.229668	-0.00815957	-0.0208997	0.0997068	0.207906	0	0	0.400977	-0.104637	-0.443935	0.396686	0.115494	0	0	-0.237514	-0.133618	-0.058031	-0.0587609	-0.205334	0.138258	0.452201	1.14474	0	0	-0.146271	-0.433354	0.143252	0.724632	1.17193	0	0
0.11	-2.85467	1.49736	-2.04245	0.629554	-0.449432	0.919014	-0.236232	-0.0123745	-0.0344669	0.105633	0.219786	0	0	0.385109	-0.079602	-0.433836	0.307558	0.102408	0	0	-0.236429	-0.134862	-0.0654042	-0.0550917	-0.203745	0.138329	0.446616	1.14859	0	0	-0.143164	-0.432341	0.139016	0.718434	1.18131	0	0
0.12	-2.82658	1.49759	-2.0653	0.62818	-0.439406	0.917278	-0.245055	-0.017329	-0.0477919	0.111292	0.229902	0	0	0.3619	-0.0515308	-0.404308	0.212209	0.0802258	0	0	-0.236877	-0.136838	-0.072166	-0.0527843	-0.204236	0.149502	0.444575	1.13138	0	0	-0.14012	-0.430834	0.132589	0.711319	1.19811	0	0
